<?xml version="1.0" encoding="utf-8"?>
<!-- Generator: Adobe Illustrator 25.0.1, SVG Export Plug-In . SVG Version: 6.00 Build 0)  -->
<svg version="1.1" xmlns="http://www.w3.org/2000/svg" xmlns:xlink="http://www.w3.org/1999/xlink" x="0px" y="0px"
	 viewBox="0 0 409.11 67.32" style="enable-background:new 0 0 409.11 67.32;" xml:space="preserve">
<style type="text/css">
	.st0{fill:#CB2027;}
	.st1{fill:#FFFFFF;}
	.st2{display:none;}
	.st3{display:inline;}
</style>
<g id="Layer_1">
	<polygon class="st0" points="140.93,67.32 0.42,67.32 0.42,0 140.93,0 140.93,67.32 	"/>
	<polygon class="st1" points="20.05,17.55 20.11,17.55 25.61,32.28 31.16,32.28 31.16,12.13 27.22,12.13 27.22,26.09 27.17,26.09 
		21.81,12.13 16.12,12.13 16.12,32.28 20.05,32.28 20.05,17.55 	"/>
	<path class="st1" d="M41.47,29.6c-2.37,0-2.68-2.23-2.68-7.4c0-5.16,0.31-7.4,2.68-7.4c1.26,0,1.73,1.01,1.73,3.68h4.13
		c0.17-4.32-1.56-6.7-5.86-6.7c-6.95,0-6.95,5.08-6.95,10.41c0,5.27,0,10.41,6.95,10.41c3.93,0,6.08-1.73,6.08-7.11h-4.16
		C43.34,27.09,43.42,29.6,41.47,29.6L41.47,29.6z"/>
	<path class="st1" d="M68.93,26.78c0-6.34-8.49-6-8.49-9.82c0-1.4,0.81-2.15,2.18-2.15c1.7,0,1.95,1.53,1.95,3.04h4.1
		c0.28-4.21-1.76-6.06-5.86-6.06c-5.14,0-6.64,2.51-6.64,5.67c0,6,8.48,6.22,8.48,9.85c0,1.36-0.69,2.29-2.12,2.29
		c-2.32,0-2.4-1.62-2.4-3.55h-4.21c-0.22,3.49,0.75,6.56,5.97,6.56C65.1,32.61,68.93,32,68.93,26.78L68.93,26.78z"/>
	<polygon class="st1" points="75.04,32.28 79.26,32.28 79.26,15.48 83.95,15.48 83.95,12.13 70.35,12.13 70.35,15.48 75.04,15.48 
		75.04,32.28 	"/>
	<path class="st1" d="M88.83,24.72l1.92-8.71h0.05l2.04,8.71H88.83L88.83,24.72z M88.26,12.13l-5.58,20.15h4.16l1.14-4.46h5.75
		l1.11,4.46h4.44l-5.47-20.15H88.26L88.26,12.13z"/>
	<polygon class="st1" points="106.88,32.28 106.88,15.48 111.58,15.48 111.58,12.13 97.98,12.13 97.98,15.48 102.68,15.48 
		102.68,32.28 106.88,32.28 	"/>
	<polygon class="st1" points="124.76,29.18 117.75,29.18 117.75,23.3 124,23.3 124,20.2 117.75,20.2 117.75,15.23 124.53,15.23 
		124.53,12.13 113.53,12.13 113.53,32.28 124.76,32.28 124.76,29.18 	"/>
	<path class="st1" d="M24.29,49.08c0,2.15,0,5.21-3.36,5.21c-3.35,0-3.35-3.06-3.35-5.21V38.72h-1.46v11.44
		c0,4.25,2.24,5.36,4.82,5.36c2.58,0,4.81-1.12,4.81-5.36V38.72h-1.46V49.08L24.29,49.08z"/>
	<polygon class="st1" points="39.04,53.14 38.99,53.19 32.3,38.72 30.07,38.72 30.07,55.2 31.53,55.2 31.53,40.62 31.58,40.58 
		38.28,55.2 40.49,55.2 40.49,38.72 39.04,38.72 39.04,53.14 	"/>
	<polygon class="st1" points="45.09,55.2 46.55,55.2 46.55,38.72 45.09,38.72 45.09,55.2 	"/>
	<polygon class="st1" points="55.08,53.47 55.04,53.47 51.14,38.72 49.58,38.72 54.17,55.2 56,55.2 60.56,38.72 59.15,38.72 
		55.08,53.47 	"/>
	<polygon class="st1" points="64.99,47.35 70.73,47.35 70.73,46.12 64.99,46.12 64.99,39.96 70.99,39.96 70.99,38.72 63.53,38.72 
		63.53,55.2 71.16,55.2 71.16,53.97 64.99,53.97 64.99,47.35 	"/>
	<path class="st1" d="M78.37,45.98H76v-6.02h2.99c1.71,0,2.6,0.43,2.6,2.69C81.58,45.41,80.56,45.98,78.37,45.98L78.37,45.98z
		 M80.49,46.64V46.6c2.21-0.51,2.56-1.88,2.56-3.93c0-2.89-0.8-3.95-3.97-3.95h-4.54V55.2H76v-7.98h2.76c3.17,0,2.69,3.17,2.71,3.88
		c0.03,0.88,0.09,3.62,0.23,4.1h1.39c-0.04-0.64-0.16-1.27-0.16-1.91C82.93,47.39,82.8,47.12,80.49,46.64L80.49,46.64z"/>
	<path class="st1" d="M91.45,46.05c-1.87-1.35-3.11-1.41-3.11-3.86c0-1.94,1.13-2.56,2.9-2.56c2.24,0,2.75,1.24,2.79,3.26h1.48
		c0-2.37-0.73-4.5-4.15-4.5c-2.69,0-4.49,1.19-4.48,4.04c0.03,1.65,0.17,2.63,3.36,4.59c2.37,1.46,3.85,2.1,3.85,4.34
		c0,1.9-0.94,2.92-2.86,2.92c-2.94,0-3.07-1.9-3.07-3.72h-1.51c-0.13,3.22,1.3,4.96,4.52,4.96c2.88,0,4.38-1.44,4.38-4.38
		C95.56,47.94,93.48,47.51,91.45,46.05L91.45,46.05z"/>
	<polygon class="st1" points="99.67,55.2 101.13,55.2 101.13,38.72 99.67,38.72 99.67,55.2 	"/>
	<polygon class="st1" points="104.28,39.96 108.3,39.96 108.3,55.2 109.76,55.2 109.76,39.96 113.78,39.96 113.78,38.72 
		104.28,38.72 104.28,39.96 	"/>
	<polygon class="st1" points="124.78,38.72 120.83,46.92 117.06,38.72 115.42,38.72 120.08,48.35 120.08,55.2 121.54,55.2 
		121.54,48.35 126.24,38.72 124.78,38.72 	"/>
</g>
<g id="Layer_2">
	<rect x="140.93" y="0.47" class="st1" width="268.17" height="67.32"/>
	<g>
		<path d="M157.1,12.67h4.39c4.65,0,5.22,2.71,5.22,8.37c0,5.52-0.8,8.23-5.82,8.23h-3.79V12.67z M158.57,28.03h1.79
			c4.44,0,4.88-1.2,4.88-7.98c0-4.76-0.64-6.14-4.74-6.14h-1.93V28.03z"/>
		<path d="M178.37,12.67v1.24h-6.05v6.21h5.77v1.24h-5.77v6.67h6.21v1.24h-7.68v-16.6H178.37z"/>
		<path d="M181.78,12.67h4.55c1.38,0,3.66,0.18,3.66,4.02c0,3.33-1.08,4.85-3.93,4.85h-2.81v7.73h-1.47V12.67z M183.25,20.3h2.74
			c1.54,0,2.53-0.74,2.53-3.33c0-2.83-1.22-3.06-2.55-3.06h-2.71V20.3z"/>
		<path d="M197.85,12.67l5.17,16.6h-1.54l-1.33-4.37h-6.51l-1.31,4.37h-1.47l5.24-16.6H197.85z M199.76,23.66l-2.83-9.38h-0.05
			l-2.81,9.38H199.76z"/>
		<path d="M207.35,21.22v8.05h-1.47v-16.6h4.58c3.2,0,4,1.06,4,3.98c0,2.07-0.34,3.45-2.58,3.96v0.05c2.32,0.48,2.46,0.76,2.46,6.69
			c0,0.64,0.11,1.29,0.16,1.93h-1.4c-0.14-0.48-0.21-3.24-0.23-4.14c-0.02-0.71,0.46-3.91-2.74-3.91H207.35z M207.35,19.98h2.39
			c2.21,0,3.24-0.57,3.24-3.36c0-2.28-0.9-2.71-2.62-2.71h-3.01V19.98z"/>
		<path d="M221.15,13.91h-4.05v-1.24h9.57v1.24h-4.05v15.36h-1.47V13.91z"/>
		<path d="M229.59,29.27v-16.6h2.51l4.9,14.99h0.05l4.83-14.99h2.35v16.6h-1.47V14.1h-0.05l-4.88,15.18h-1.7l-5.01-15.18h-0.05
			v15.18H229.59z"/>
		<path d="M256.06,12.67v1.24h-6.05v6.21h5.77v1.24h-5.77v6.67h6.21v1.24h-7.68v-16.6H256.06z"/>
		<path d="M259.77,29.27v-16.6h2.25l6.74,14.58l0.05-0.05V12.67h1.47v16.6h-2.23l-6.76-14.74l-0.05,0.05v14.69H259.77z"/>
		<path d="M277.39,13.91h-4.05v-1.24h9.57v1.24h-4.05v15.36h-1.47V13.91z"/>
		<path d="M296.66,12.35c4.97,0,5.01,4.14,5.01,8.62s-0.05,8.62-5.01,8.62s-5.01-4.14-5.01-8.62S291.69,12.35,296.66,12.35z
			 M296.66,28.35c3.5,0,3.54-2.97,3.54-7.38s-0.05-7.38-3.54-7.38s-3.54,2.97-3.54,7.38S293.16,28.35,296.66,28.35z"/>
		<path d="M305.58,12.67h7.01v1.24h-5.54v6.21h5.15v1.24h-5.15v7.91h-1.47V12.67z"/>
	</g>
	<g>
		<path d="M156.94,45.55c0-5.35,0-10.44,6.97-10.44c4.31,0,6.05,2.38,5.88,6.72h-4.14c0-2.69-0.48-3.7-1.74-3.7
			c-2.38,0-2.69,2.24-2.69,7.42c0,5.18,0.31,7.42,2.69,7.42c1.96,0,1.88-2.52,1.93-4.12h4.17c0,5.4-2.16,7.14-6.1,7.14
			C156.94,56,156.94,50.85,156.94,45.55z"/>
		<path d="M172.51,45.55c0-5.35,0-10.44,6.97-10.44c6.97,0,6.97,5.1,6.97,10.44c0,5.29,0,10.44-6.97,10.44
			C172.51,56,172.51,50.85,172.51,45.55z M182.17,45.55c0-5.18-0.31-7.42-2.69-7.42s-2.69,2.24-2.69,7.42
			c0,5.18,0.31,7.42,2.69,7.42S182.17,50.73,182.17,45.55z"/>
		<path d="M189.73,55.66V35.45h6.8l3.16,13.75h0.06l3.36-13.75h6.58v20.22h-4.12v-15.6h-0.06l-3.89,15.6h-4.03l-3.7-15.6h-0.06v15.6
			H189.73z"/>
		<path d="M213.16,35.45h7.62c3.86,0,5.38,2.35,5.38,6.05c0,2.3-0.67,5.94-5.63,5.94h-3.14v8.23h-4.23V35.45z M217.39,44.32h2.35
			c1.26,0,2.13-1.37,2.13-2.72c0-1.65-0.45-3.05-2.35-3.05h-2.13V44.32z"/>
		<path d="M242.37,35.45v14.34c0,3.02-1.71,6.22-6.86,6.22c-4.65,0-6.89-2.41-6.89-6.22V35.45h4.23V49.5c0,2.49,1.06,3.47,2.6,3.47
			c1.85,0,2.69-1.23,2.69-3.47V35.45H242.37z"/>
		<path d="M257.85,35.45v3.36h-4.7v16.86h-4.23V38.81h-4.7v-3.36H257.85z"/>
		<path d="M259.81,55.66V35.45h11.03v3.11h-6.8v4.98h6.27v3.11h-6.27v5.91h7.03v3.11H259.81z"/>
		<path d="M277.96,55.66h-4.23V35.45h7.81c2.88,0,4.73,1.85,4.73,5.29c0,2.58-1.01,4.51-3.75,4.96v0.06
			c0.92,0.11,3.67,0.34,3.67,3.98c0,1.29,0.08,5.1,0.48,5.94h-4.14c-0.56-1.23-0.45-2.6-0.45-3.92c0-2.41,0.22-4.45-3.02-4.45h-1.09
			V55.66z M277.96,44.18h1.88c1.68,0,2.16-1.68,2.16-2.97c0-1.93-0.81-2.66-2.16-2.66h-1.88V44.18z"/>
		<path d="M301.08,56c-5.24,0-6.22-3.08-5.99-6.58h4.23c0,1.93,0.08,3.56,2.41,3.56c1.43,0,2.13-0.92,2.13-2.3
			c0-3.64-8.51-3.86-8.51-9.88c0-3.16,1.51-5.68,6.66-5.68c4.12,0,6.16,1.85,5.88,6.08h-4.12c0-1.51-0.25-3.05-1.96-3.05
			c-1.37,0-2.18,0.76-2.18,2.16c0,3.84,8.51,3.5,8.51,9.86C308.14,55.38,304.3,56,301.08,56z"/>
		<path d="M310.97,45.55c0-5.35,0-10.44,6.97-10.44c4.31,0,6.05,2.38,5.88,6.72h-4.14c0-2.69-0.48-3.7-1.74-3.7
			c-2.38,0-2.69,2.24-2.69,7.42c0,5.18,0.31,7.42,2.69,7.42c1.96,0,1.88-2.52,1.93-4.12h4.17c0,5.4-2.16,7.14-6.1,7.14
			C310.97,56,310.97,50.85,310.97,45.55z"/>
		<path d="M326.73,55.66V35.45h4.23v20.22H326.73z"/>
		<path d="M334.52,55.66V35.45h11.03v3.11h-6.8v4.98h6.27v3.11h-6.27v5.91h7.03v3.11H334.52z"/>
		<path d="M348.54,55.66V35.45h5.71l5.38,14h0.06v-14h3.95v20.22h-5.57l-5.52-14.78h-0.06v14.78H348.54z"/>
		<path d="M367,45.55c0-5.35,0-10.44,6.97-10.44c4.31,0,6.05,2.38,5.88,6.72h-4.14c0-2.69-0.48-3.7-1.74-3.7
			c-2.38,0-2.69,2.24-2.69,7.42c0,5.18,0.31,7.42,2.69,7.42c1.96,0,1.88-2.52,1.93-4.12h4.17c0,5.4-2.16,7.14-6.1,7.14
			C367,56,367,50.85,367,45.55z"/>
		<path d="M382.76,55.66V35.45h11.03v3.11h-6.8v4.98h6.27v3.11h-6.27v5.91h7.03v3.11H382.76z"/>
	</g>
</g>
<g id="Layer_3" class="st2">
	<rect x="140.93" y="0.15" class="st3" width="268.17" height="67.32"/>
	<g class="st3">
		<path class="st1" d="M157.1,12.35h4.39c4.65,0,5.22,2.71,5.22,8.37c0,5.52-0.8,8.23-5.82,8.23h-3.79V12.35z M158.57,27.71h1.79
			c4.44,0,4.88-1.2,4.88-7.98c0-4.76-0.64-6.14-4.74-6.14h-1.93V27.71z"/>
		<path class="st1" d="M178.37,12.35v1.24h-6.05v6.21h5.77v1.24h-5.77v6.67h6.21v1.24h-7.68v-16.6H178.37z"/>
		<path class="st1" d="M181.78,12.35h4.55c1.38,0,3.66,0.18,3.66,4.02c0,3.33-1.08,4.85-3.93,4.85h-2.81v7.73h-1.47V12.35z
			 M183.25,19.98h2.74c1.54,0,2.53-0.74,2.53-3.33c0-2.83-1.22-3.06-2.55-3.06h-2.71V19.98z"/>
		<path class="st1" d="M197.85,12.35l5.17,16.6h-1.54l-1.33-4.37h-6.51l-1.31,4.37h-1.47l5.24-16.6H197.85z M199.76,23.34
			l-2.83-9.38h-0.05l-2.81,9.38H199.76z"/>
		<path class="st1" d="M207.35,20.9v8.05h-1.47v-16.6h4.58c3.2,0,4,1.06,4,3.98c0,2.07-0.34,3.45-2.58,3.96v0.05
			c2.32,0.48,2.46,0.76,2.46,6.69c0,0.64,0.11,1.29,0.16,1.93h-1.4c-0.14-0.48-0.21-3.24-0.23-4.14c-0.02-0.71,0.46-3.91-2.74-3.91
			H207.35z M207.35,19.66h2.39c2.21,0,3.24-0.57,3.24-3.36c0-2.28-0.9-2.71-2.62-2.71h-3.01V19.66z"/>
		<path class="st1" d="M221.15,13.59h-4.05v-1.24h9.57v1.24h-4.05v15.36h-1.47V13.59z"/>
		<path class="st1" d="M229.59,28.95v-16.6h2.51l4.9,14.99h0.05l4.83-14.99h2.35v16.6h-1.47V13.77h-0.05l-4.88,15.18h-1.7
			l-5.01-15.18h-0.05v15.18H229.59z"/>
		<path class="st1" d="M256.06,12.35v1.24h-6.05v6.21h5.77v1.24h-5.77v6.67h6.21v1.24h-7.68v-16.6H256.06z"/>
		<path class="st1" d="M259.77,28.95v-16.6h2.25l6.74,14.58l0.05-0.05V12.35h1.47v16.6h-2.23l-6.76-14.74l-0.05,0.05v14.69H259.77z"
			/>
		<path class="st1" d="M277.39,13.59h-4.05v-1.24h9.57v1.24h-4.05v15.36h-1.47V13.59z"/>
		<path class="st1" d="M296.66,12.03c4.97,0,5.01,4.14,5.01,8.62s-0.05,8.62-5.01,8.62s-5.01-4.14-5.01-8.62
			S291.69,12.03,296.66,12.03z M296.66,28.03c3.5,0,3.54-2.97,3.54-7.38s-0.05-7.38-3.54-7.38s-3.54,2.97-3.54,7.38
			S293.16,28.03,296.66,28.03z"/>
		<path class="st1" d="M305.58,12.35h7.01v1.24h-5.54v6.21h5.15v1.24h-5.15v7.91h-1.47V12.35z"/>
	</g>
	<g class="st3">
		<path class="st1" d="M156.94,45.23c0-5.35,0-10.44,6.97-10.44c4.31,0,6.05,2.38,5.88,6.72h-4.14c0-2.69-0.48-3.7-1.74-3.7
			c-2.38,0-2.69,2.24-2.69,7.42c0,5.18,0.31,7.42,2.69,7.42c1.96,0,1.88-2.52,1.93-4.12h4.17c0,5.4-2.16,7.14-6.1,7.14
			C156.94,55.68,156.94,50.52,156.94,45.23z"/>
		<path class="st1" d="M172.51,45.23c0-5.35,0-10.44,6.97-10.44c6.97,0,6.97,5.1,6.97,10.44c0,5.29,0,10.44-6.97,10.44
			C172.51,55.68,172.51,50.52,172.51,45.23z M182.17,45.23c0-5.18-0.31-7.42-2.69-7.42s-2.69,2.24-2.69,7.42
			c0,5.18,0.31,7.42,2.69,7.42S182.17,50.41,182.17,45.23z"/>
		<path class="st1" d="M189.73,55.34V35.12h6.8l3.16,13.75h0.06l3.36-13.75h6.58v20.22h-4.12v-15.6h-0.06l-3.89,15.6h-4.03
			l-3.7-15.6h-0.06v15.6H189.73z"/>
		<path class="st1" d="M213.16,35.12h7.62c3.86,0,5.38,2.35,5.38,6.05c0,2.3-0.67,5.94-5.63,5.94h-3.14v8.23h-4.23V35.12z
			 M217.39,44h2.35c1.26,0,2.13-1.37,2.13-2.72c0-1.65-0.45-3.05-2.35-3.05h-2.13V44z"/>
		<path class="st1" d="M242.37,35.12v14.34c0,3.02-1.71,6.22-6.86,6.22c-4.65,0-6.89-2.41-6.89-6.22V35.12h4.23v14.06
			c0,2.49,1.06,3.47,2.6,3.47c1.85,0,2.69-1.23,2.69-3.47V35.12H242.37z"/>
		<path class="st1" d="M257.85,35.12v3.36h-4.7v16.86h-4.23V38.48h-4.7v-3.36H257.85z"/>
		<path class="st1" d="M259.81,55.34V35.12h11.03v3.11h-6.8v4.98h6.27v3.11h-6.27v5.91h7.03v3.11H259.81z"/>
		<path class="st1" d="M277.96,55.34h-4.23V35.12h7.81c2.88,0,4.73,1.85,4.73,5.29c0,2.58-1.01,4.51-3.75,4.96v0.06
			c0.92,0.11,3.67,0.34,3.67,3.98c0,1.29,0.08,5.1,0.48,5.94h-4.14c-0.56-1.23-0.45-2.6-0.45-3.92c0-2.41,0.22-4.45-3.02-4.45h-1.09
			V55.34z M277.96,43.86h1.88c1.68,0,2.16-1.68,2.16-2.97c0-1.93-0.81-2.66-2.16-2.66h-1.88V43.86z"/>
		<path class="st1" d="M301.08,55.68c-5.24,0-6.22-3.08-5.99-6.58h4.23c0,1.93,0.08,3.56,2.41,3.56c1.43,0,2.13-0.92,2.13-2.3
			c0-3.64-8.51-3.86-8.51-9.88c0-3.16,1.51-5.68,6.66-5.68c4.12,0,6.16,1.85,5.88,6.08h-4.12c0-1.51-0.25-3.05-1.96-3.05
			c-1.37,0-2.18,0.76-2.18,2.16c0,3.84,8.51,3.5,8.51,9.86C308.14,55.06,304.3,55.68,301.08,55.68z"/>
		<path class="st1" d="M310.97,45.23c0-5.35,0-10.44,6.97-10.44c4.31,0,6.05,2.38,5.88,6.72h-4.14c0-2.69-0.48-3.7-1.74-3.7
			c-2.38,0-2.69,2.24-2.69,7.42c0,5.18,0.31,7.42,2.69,7.42c1.96,0,1.88-2.52,1.93-4.12h4.17c0,5.4-2.16,7.14-6.1,7.14
			C310.97,55.68,310.97,50.52,310.97,45.23z"/>
		<path class="st1" d="M326.73,55.34V35.12h4.23v20.22H326.73z"/>
		<path class="st1" d="M334.52,55.34V35.12h11.03v3.11h-6.8v4.98h6.27v3.11h-6.27v5.91h7.03v3.11H334.52z"/>
		<path class="st1" d="M348.54,55.34V35.12h5.71l5.38,14h0.06v-14h3.95v20.22h-5.57l-5.52-14.78h-0.06v14.78H348.54z"/>
		<path class="st1" d="M367,45.23c0-5.35,0-10.44,6.97-10.44c4.31,0,6.05,2.38,5.88,6.72h-4.14c0-2.69-0.48-3.7-1.74-3.7
			c-2.38,0-2.69,2.24-2.69,7.42c0,5.18,0.31,7.42,2.69,7.42c1.96,0,1.88-2.52,1.93-4.12h4.17c0,5.4-2.16,7.14-6.1,7.14
			C367,55.68,367,50.52,367,45.23z"/>
		<path class="st1" d="M382.76,55.34V35.12h11.03v3.11h-6.8v4.98h6.27v3.11h-6.27v5.91h7.03v3.11H382.76z"/>
	</g>
</g>
</svg>
